# xmcd
#
# Track frame offsets:
# 150
# 16360
# 32522
# 48705
# 62052
# 76537
# 91537
# 108865
# 123315
# 138675
#
# Disc length: 2075 seconds
#
#
# Revision: 0
# Processed by: cddbd v1.5.1PL2 Copyright (c) Steve Scherf et al.
# Submitted via: FreeRIP 2.91 
#
DISCID=7308190a
DTITLE=Chalino Sanchez - 30 Chalinazos Disco 1
DYEAR=2001
DGENRE=Nortena
TTITLE0=Nieves de Enero
TTITLE1=Me Persique tu Sombra
TTITLE2=Nocturno a Rosario
TTITLE3=Florita del Alma
TTITLE4=El Crimen de Culiacan
TTITLE5=El Guilo Rivera
TTITLE6=Juan Machado
TTITLE7=Arcadio Barraza
TTITLE8=Dimas, Regulo y Miguel
TTITLE9=Martin Felix
EXTD=
EXTT0=
EXTT1=
EXTT2=
EXTT3=
EXTT4=
EXTT5=
EXTT6=
EXTT7=
EXTT8=
EXTT9=
PLAYORDER=
